<?xml version="1.0" standalone="no"?>
<!DOCTYPE svg PUBLIC "-//W3C//DTD SVG 20010904//EN"
 "http://www.w3.org/TR/2001/REC-SVG-20010904/DTD/svg10.dtd">
<svg version="1.0" xmlns="http://www.w3.org/2000/svg"
 width="512.000000pt" height="512.000000pt" viewBox="0 0 512.000000 512.000000"
 preserveAspectRatio="xMidYMid meet">
<metadata>
Created by potrace 1.14, written by Peter Selinger 2001-2017
</metadata>
<g transform="translate(0.000000,512.000000) scale(0.100000,-0.100000)"
fill="#000000" stroke="none">
<path d="M2542 4553 c-20 -20 -176 -158 -213 -188 -28 -23 -143 -106 -209
-151 -57 -39 -200 -122 -265 -154 -27 -14 -51 -28 -53 -32 -2 -5 -11 -8 -21
-8 -9 0 -21 -4 -26 -9 -29 -28 -469 -191 -580 -215 -5 -2 -28 -8 -50 -14 -22
-6 -51 -13 -65 -16 -14 -3 -44 -10 -68 -16 -23 -5 -59 -13 -80 -16 -20 -3 -40
-8 -44 -10 -4 -3 -24 -7 -45 -10 -21 -3 -67 -11 -103 -17 l-65 -12 1 -70 c2
-83 12 -252 19 -315 3 -25 7 -65 10 -90 60 -578 216 -1098 471 -1570 10 -19
22 -36 27 -38 4 -2 7 -8 7 -13 0 -13 129 -206 197 -294 91 -119 263 -296 378
-391 191 -158 444 -309 640 -383 33 -13 81 -31 106 -41 l46 -18 104 42 c135
55 258 117 394 199 37 23 183 127 223 159 22 18 57 47 78 65 184 150 418 435
574 698 72 120 190 359 190 383 0 6 3 12 8 14 18 8 152 405 197 585 36 144 75
333 81 393 2 19 10 82 18 140 22 158 31 264 40 467 l4 83 -42 11 c-22 6 -48
12 -56 14 -8 2 -35 8 -60 14 -601 155 -1053 341 -1412 583 -82 54 -254 189
-305 237 -27 25 -28 26 -51 4z m939 -1425 c35 -39 81 -90 102 -112 20 -23 37
-45 37 -51 -1 -5 -24 -29 -53 -53 -29 -23 -66 -54 -82 -70 -17 -15 -64 -56
-105 -91 -41 -36 -79 -70 -85 -75 -5 -6 -39 -36 -75 -66 -35 -30 -72 -62 -81
-70 -31 -28 -74 -66 -189 -165 -63 -55 -119 -105 -125 -111 -5 -5 -44 -39 -85
-75 -41 -35 -80 -68 -86 -74 -6 -5 -39 -35 -74 -65 -34 -30 -72 -63 -84 -73
-12 -11 -45 -40 -75 -65 -30 -26 -64 -56 -75 -67 -12 -11 -42 -37 -68 -59
l-48 -38 -371 372 -372 372 113 113 114 114 251 -252 c139 -139 259 -258 269
-266 14 -12 24 -7 79 40 34 29 64 56 67 59 3 3 59 52 125 109 66 58 127 112
136 120 9 9 29 27 45 40 16 14 78 68 139 120 159 139 177 154 195 171 9 8 47
42 85 75 39 33 72 62 75 65 3 3 41 36 85 75 44 38 93 82 109 97 17 16 33 28
37 28 3 0 35 -32 70 -72z"/>
</g>
</svg>
